<mxfile host="app.diagrams.net" agent="Mozilla/5.0 (Macintosh; Intel Mac OS X 10_15_7) AppleWebKit/537.36 (KHTML, like Gecko) Chrome/128.0.0.0 Safari/537.36" version="24.7.8">
  <diagram name="Page-1" id="RUkvZuHKz5B7idUXhvqk">
    <mxGraphModel dx="3585" dy="2075" grid="1" gridSize="10" guides="1" tooltips="1" connect="1" arrows="1" fold="1" page="0" pageScale="1" pageWidth="1169" pageHeight="827" math="0" shadow="0">
      <root>
        <mxCell id="0" />
        <mxCell id="1" parent="0" />
        <mxCell id="Zko0NEZVh27HqicIJe5g-249" value="" style="rounded=0;whiteSpace=wrap;html=1;rotation=90;" vertex="1" parent="1">
          <mxGeometry x="-815" y="295" width="780" height="60" as="geometry" />
        </mxCell>
        <mxCell id="Zko0NEZVh27HqicIJe5g-306" style="edgeStyle=orthogonalEdgeStyle;rounded=0;orthogonalLoop=1;jettySize=auto;html=1;entryX=0;entryY=0.5;entryDx=0;entryDy=0;fontStyle=1;fontSize=15;strokeColor=default;" edge="1" parent="1" source="Zko0NEZVh27HqicIJe5g-250" target="Zko0NEZVh27HqicIJe5g-268">
          <mxGeometry relative="1" as="geometry" />
        </mxCell>
        <mxCell id="Zko0NEZVh27HqicIJe5g-250" value="Gateway" style="text;html=1;align=center;verticalAlign=middle;whiteSpace=wrap;rounded=0;rotation=-90;fontStyle=1;fontSize=28;" vertex="1" parent="1">
          <mxGeometry x="-625" y="295" width="407.5" height="25.62" as="geometry" />
        </mxCell>
        <mxCell id="Zko0NEZVh27HqicIJe5g-253" value="" style="endArrow=classic;html=1;rounded=0;strokeWidth=6;" edge="1" parent="1">
          <mxGeometry width="50" height="50" relative="1" as="geometry">
            <mxPoint x="-650" y="285.62" as="sourcePoint" />
            <mxPoint x="-450" y="286.12" as="targetPoint" />
          </mxGeometry>
        </mxCell>
        <mxCell id="Zko0NEZVh27HqicIJe5g-254" value="" style="endArrow=classic;html=1;rounded=0;entryX=0.5;entryY=1;entryDx=0;entryDy=0;strokeWidth=6;" edge="1" parent="1">
          <mxGeometry width="50" height="50" relative="1" as="geometry">
            <mxPoint x="-640" y="530" as="sourcePoint" />
            <mxPoint x="-451" y="530" as="targetPoint" />
          </mxGeometry>
        </mxCell>
        <mxCell id="Zko0NEZVh27HqicIJe5g-255" value="" style="endArrow=classic;html=1;rounded=0;entryX=0.5;entryY=1;entryDx=0;entryDy=0;strokeWidth=6;" edge="1" parent="1">
          <mxGeometry width="50" height="50" relative="1" as="geometry">
            <mxPoint x="-636.25" y="120" as="sourcePoint" />
            <mxPoint x="-447.25" y="120" as="targetPoint" />
          </mxGeometry>
        </mxCell>
        <mxCell id="Zko0NEZVh27HqicIJe5g-256" value="&lt;b style=&quot;font-size: 35px;&quot;&gt;Network Requests&lt;/b&gt;" style="text;html=1;align=center;verticalAlign=middle;whiteSpace=wrap;rounded=0;fontSize=35;" vertex="1" parent="1">
          <mxGeometry x="-830" y="350" width="410" height="30" as="geometry" />
        </mxCell>
        <mxCell id="Zko0NEZVh27HqicIJe5g-268" value="\" style="rounded=1;whiteSpace=wrap;html=1;verticalAlign=middle;labelBorderColor=#000000;glass=1;shadow=0;textShadow=0;fillColor=none;gradientColor=none;strokeWidth=3;" vertex="1" parent="1">
          <mxGeometry x="-290" y="-380" width="1210" height="1130" as="geometry" />
        </mxCell>
        <mxCell id="Zko0NEZVh27HqicIJe5g-279" style="edgeStyle=orthogonalEdgeStyle;rounded=0;orthogonalLoop=1;jettySize=auto;html=1;entryX=0;entryY=0.5;entryDx=0;entryDy=0;" edge="1" parent="1" source="Zko0NEZVh27HqicIJe5g-270" target="Zko0NEZVh27HqicIJe5g-277">
          <mxGeometry relative="1" as="geometry">
            <Array as="points">
              <mxPoint x="130" y="-185" />
              <mxPoint x="130" y="-250" />
            </Array>
          </mxGeometry>
        </mxCell>
        <mxCell id="Zko0NEZVh27HqicIJe5g-282" style="edgeStyle=orthogonalEdgeStyle;rounded=0;orthogonalLoop=1;jettySize=auto;html=1;exitX=1;exitY=1;exitDx=0;exitDy=0;entryX=0;entryY=0.75;entryDx=0;entryDy=0;" edge="1" parent="1" source="Zko0NEZVh27HqicIJe5g-270" target="Zko0NEZVh27HqicIJe5g-280">
          <mxGeometry relative="1" as="geometry">
            <Array as="points">
              <mxPoint x="390" y="-139" />
              <mxPoint x="390" y="-115" />
            </Array>
          </mxGeometry>
        </mxCell>
        <mxCell id="Zko0NEZVh27HqicIJe5g-270" value="" style="ellipse;whiteSpace=wrap;html=1;aspect=fixed;" vertex="1" parent="1">
          <mxGeometry x="-102.5" y="-250" width="130" height="130" as="geometry" />
        </mxCell>
        <mxCell id="Zko0NEZVh27HqicIJe5g-272" value="&lt;b style=&quot;font-size: 30px;&quot;&gt;&lt;font style=&quot;font-size: 30px;&quot;&gt;Auth Exchange(Topic)&lt;/font&gt;&lt;/b&gt;" style="text;html=1;align=center;verticalAlign=middle;whiteSpace=wrap;rounded=0;rotation=0;fontSize=30;" vertex="1" parent="1">
          <mxGeometry x="-237.5" y="-320" width="357.5" height="70" as="geometry" />
        </mxCell>
        <mxCell id="Zko0NEZVh27HqicIJe5g-295" style="edgeStyle=orthogonalEdgeStyle;rounded=0;orthogonalLoop=1;jettySize=auto;html=1;exitX=0.5;exitY=0;exitDx=0;exitDy=0;entryX=0;entryY=0.5;entryDx=0;entryDy=0;" edge="1" parent="1" source="Zko0NEZVh27HqicIJe5g-273" target="Zko0NEZVh27HqicIJe5g-286">
          <mxGeometry relative="1" as="geometry" />
        </mxCell>
        <mxCell id="Zko0NEZVh27HqicIJe5g-296" style="edgeStyle=orthogonalEdgeStyle;rounded=0;orthogonalLoop=1;jettySize=auto;html=1;exitX=1;exitY=0.5;exitDx=0;exitDy=0;" edge="1" parent="1" source="Zko0NEZVh27HqicIJe5g-273" target="Zko0NEZVh27HqicIJe5g-289">
          <mxGeometry relative="1" as="geometry" />
        </mxCell>
        <mxCell id="Zko0NEZVh27HqicIJe5g-297" style="edgeStyle=orthogonalEdgeStyle;rounded=0;orthogonalLoop=1;jettySize=auto;html=1;exitX=1;exitY=1;exitDx=0;exitDy=0;entryX=0;entryY=0.5;entryDx=0;entryDy=0;" edge="1" parent="1" source="Zko0NEZVh27HqicIJe5g-273" target="Zko0NEZVh27HqicIJe5g-290">
          <mxGeometry relative="1" as="geometry" />
        </mxCell>
        <mxCell id="Zko0NEZVh27HqicIJe5g-298" style="edgeStyle=orthogonalEdgeStyle;rounded=0;orthogonalLoop=1;jettySize=auto;html=1;exitX=0.5;exitY=1;exitDx=0;exitDy=0;entryX=0;entryY=0.5;entryDx=0;entryDy=0;" edge="1" parent="1" source="Zko0NEZVh27HqicIJe5g-273" target="Zko0NEZVh27HqicIJe5g-293">
          <mxGeometry relative="1" as="geometry" />
        </mxCell>
        <mxCell id="Zko0NEZVh27HqicIJe5g-273" value="" style="ellipse;whiteSpace=wrap;html=1;aspect=fixed;" vertex="1" parent="1">
          <mxGeometry x="-139.5" y="140" width="130" height="130" as="geometry" />
        </mxCell>
        <mxCell id="Zko0NEZVh27HqicIJe5g-274" value="&lt;b style=&quot;font-size: 30px;&quot;&gt;&lt;font style=&quot;font-size: 30px;&quot;&gt;Product Exchange(Topic)&lt;/font&gt;&lt;/b&gt;" style="text;html=1;align=center;verticalAlign=middle;whiteSpace=wrap;rounded=0;rotation=0;fontSize=30;" vertex="1" parent="1">
          <mxGeometry x="-269" y="-85" width="389" height="70" as="geometry" />
        </mxCell>
        <mxCell id="Zko0NEZVh27HqicIJe5g-276" value="&lt;b style=&quot;&quot;&gt;&lt;font style=&quot;font-size: 40px;&quot;&gt;RabbitMq&lt;/font&gt;&lt;/b&gt;" style="text;html=1;align=center;verticalAlign=middle;whiteSpace=wrap;rounded=0;rotation=0;fontSize=30;" vertex="1" parent="1">
          <mxGeometry x="-490" y="-440" width="790" height="70" as="geometry" />
        </mxCell>
        <mxCell id="Zko0NEZVh27HqicIJe5g-313" style="edgeStyle=orthogonalEdgeStyle;rounded=0;orthogonalLoop=1;jettySize=auto;html=1;exitX=1;exitY=0.75;exitDx=0;exitDy=0;entryX=0;entryY=0.25;entryDx=0;entryDy=0;" edge="1" parent="1" source="Zko0NEZVh27HqicIJe5g-277" target="Zko0NEZVh27HqicIJe5g-307">
          <mxGeometry relative="1" as="geometry">
            <mxPoint x="1030" y="-30" as="targetPoint" />
          </mxGeometry>
        </mxCell>
        <mxCell id="Zko0NEZVh27HqicIJe5g-277" value="" style="shape=process;whiteSpace=wrap;html=1;backgroundOutline=1;" vertex="1" parent="1">
          <mxGeometry x="450" y="-280" width="330" height="60" as="geometry" />
        </mxCell>
        <mxCell id="Zko0NEZVh27HqicIJe5g-278" value="&lt;b&gt;auth signup queue&lt;/b&gt;" style="text;html=1;align=center;verticalAlign=middle;whiteSpace=wrap;rounded=0;rotation=0;fontSize=30;" vertex="1" parent="1">
          <mxGeometry x="491.88" y="-340" width="273.75" height="70" as="geometry" />
        </mxCell>
        <mxCell id="Zko0NEZVh27HqicIJe5g-314" style="edgeStyle=orthogonalEdgeStyle;rounded=0;orthogonalLoop=1;jettySize=auto;html=1;exitX=1;exitY=0.5;exitDx=0;exitDy=0;entryX=0;entryY=0.75;entryDx=0;entryDy=0;" edge="1" parent="1" source="Zko0NEZVh27HqicIJe5g-280" target="Zko0NEZVh27HqicIJe5g-307">
          <mxGeometry relative="1" as="geometry">
            <mxPoint x="1130" y="-97.5" as="targetPoint" />
          </mxGeometry>
        </mxCell>
        <mxCell id="Zko0NEZVh27HqicIJe5g-280" value="" style="shape=process;whiteSpace=wrap;html=1;backgroundOutline=1;" vertex="1" parent="1">
          <mxGeometry x="463.75" y="-160" width="330" height="60" as="geometry" />
        </mxCell>
        <mxCell id="Zko0NEZVh27HqicIJe5g-281" value="&lt;b&gt;auth login queue&lt;/b&gt;" style="text;html=1;align=center;verticalAlign=middle;whiteSpace=wrap;rounded=0;rotation=0;fontSize=30;" vertex="1" parent="1">
          <mxGeometry x="496.88" y="-220" width="260" height="70" as="geometry" />
        </mxCell>
        <mxCell id="Zko0NEZVh27HqicIJe5g-283" value="&lt;font style=&quot;font-size: 25px;&quot;&gt;auth.signup&lt;/font&gt;" style="text;html=1;align=center;verticalAlign=middle;whiteSpace=wrap;rounded=0;" vertex="1" parent="1">
          <mxGeometry x="250" y="-290" width="98.75" height="30" as="geometry" />
        </mxCell>
        <mxCell id="Zko0NEZVh27HqicIJe5g-284" value="&lt;font style=&quot;font-size: 25px;&quot;&gt;auth.login&lt;/font&gt;" style="text;html=1;align=center;verticalAlign=middle;whiteSpace=wrap;rounded=0;" vertex="1" parent="1">
          <mxGeometry x="200" y="-180" width="169" height="30" as="geometry" />
        </mxCell>
        <mxCell id="Zko0NEZVh27HqicIJe5g-316" style="edgeStyle=orthogonalEdgeStyle;rounded=0;orthogonalLoop=1;jettySize=auto;html=1;exitX=1;exitY=0.5;exitDx=0;exitDy=0;entryX=0;entryY=0.25;entryDx=0;entryDy=0;" edge="1" parent="1" source="Zko0NEZVh27HqicIJe5g-286" target="Zko0NEZVh27HqicIJe5g-315">
          <mxGeometry relative="1" as="geometry" />
        </mxCell>
        <mxCell id="Zko0NEZVh27HqicIJe5g-286" value="" style="shape=process;whiteSpace=wrap;html=1;backgroundOutline=1;" vertex="1" parent="1">
          <mxGeometry x="460" y="10" width="330" height="60" as="geometry" />
        </mxCell>
        <mxCell id="Zko0NEZVh27HqicIJe5g-287" value="&lt;meta charset=&quot;utf-8&quot;&gt;&lt;b style=&quot;forced-color-adjust: none; color: rgb(0, 0, 0); font-family: Helvetica; font-size: 30px; font-style: normal; font-variant-ligatures: normal; font-variant-caps: normal; letter-spacing: normal; orphans: 2; text-align: center; text-indent: 0px; text-transform: none; widows: 2; word-spacing: 0px; -webkit-text-stroke-width: 0px; white-space: normal; background-color: rgb(255, 255, 255); text-decoration-thickness: initial; text-decoration-style: initial; text-decoration-color: initial;&quot;&gt;product create queue&lt;/b&gt;" style="text;html=1;align=center;verticalAlign=middle;whiteSpace=wrap;rounded=0;rotation=0;fontSize=30;" vertex="1" parent="1">
          <mxGeometry x="471.88" y="-50" width="313.75" height="70" as="geometry" />
        </mxCell>
        <mxCell id="Zko0NEZVh27HqicIJe5g-317" style="edgeStyle=orthogonalEdgeStyle;rounded=0;orthogonalLoop=1;jettySize=auto;html=1;exitX=1;exitY=0.5;exitDx=0;exitDy=0;entryX=0;entryY=0.5;entryDx=0;entryDy=0;" edge="1" parent="1" source="Zko0NEZVh27HqicIJe5g-289" target="Zko0NEZVh27HqicIJe5g-315">
          <mxGeometry relative="1" as="geometry">
            <Array as="points">
              <mxPoint x="950" y="160" />
              <mxPoint x="950" y="225" />
            </Array>
          </mxGeometry>
        </mxCell>
        <mxCell id="Zko0NEZVh27HqicIJe5g-289" value="" style="shape=process;whiteSpace=wrap;html=1;backgroundOutline=1;" vertex="1" parent="1">
          <mxGeometry x="460" y="130" width="330" height="60" as="geometry" />
        </mxCell>
        <mxCell id="Zko0NEZVh27HqicIJe5g-318" style="edgeStyle=orthogonalEdgeStyle;rounded=0;orthogonalLoop=1;jettySize=auto;html=1;exitX=1;exitY=0.5;exitDx=0;exitDy=0;entryX=0;entryY=0.75;entryDx=0;entryDy=0;" edge="1" parent="1" source="Zko0NEZVh27HqicIJe5g-290" target="Zko0NEZVh27HqicIJe5g-315">
          <mxGeometry relative="1" as="geometry" />
        </mxCell>
        <mxCell id="Zko0NEZVh27HqicIJe5g-290" value="" style="shape=process;whiteSpace=wrap;html=1;backgroundOutline=1;" vertex="1" parent="1">
          <mxGeometry x="460" y="250" width="330" height="60" as="geometry" />
        </mxCell>
        <mxCell id="Zko0NEZVh27HqicIJe5g-293" value="" style="shape=process;whiteSpace=wrap;html=1;backgroundOutline=1;" vertex="1" parent="1">
          <mxGeometry x="460" y="370" width="330" height="60" as="geometry" />
        </mxCell>
        <mxCell id="Zko0NEZVh27HqicIJe5g-299" value="&lt;b style=&quot;forced-color-adjust: none; color: rgb(0, 0, 0); font-family: Helvetica; font-size: 30px; font-style: normal; font-variant-ligatures: normal; font-variant-caps: normal; letter-spacing: normal; orphans: 2; text-align: center; text-indent: 0px; text-transform: none; widows: 2; word-spacing: 0px; -webkit-text-stroke-width: 0px; white-space: normal; background-color: rgb(255, 255, 255); text-decoration-thickness: initial; text-decoration-style: initial; text-decoration-color: initial;&quot;&gt;product update queue&lt;/b&gt;" style="text;html=1;align=center;verticalAlign=middle;whiteSpace=wrap;rounded=0;rotation=0;fontSize=30;" vertex="1" parent="1">
          <mxGeometry x="460" y="70" width="333.75" height="70" as="geometry" />
        </mxCell>
        <mxCell id="Zko0NEZVh27HqicIJe5g-300" value="&lt;b style=&quot;forced-color-adjust: none; color: rgb(0, 0, 0); font-family: Helvetica; font-size: 30px; font-style: normal; font-variant-ligatures: normal; font-variant-caps: normal; letter-spacing: normal; orphans: 2; text-align: center; text-indent: 0px; text-transform: none; widows: 2; word-spacing: 0px; -webkit-text-stroke-width: 0px; white-space: normal; background-color: rgb(255, 255, 255); text-decoration-thickness: initial; text-decoration-style: initial; text-decoration-color: initial;&quot;&gt;product delete queue&lt;/b&gt;" style="text;html=1;align=center;verticalAlign=middle;whiteSpace=wrap;rounded=0;rotation=0;fontSize=30;" vertex="1" parent="1">
          <mxGeometry x="476.25" y="190" width="317.5" height="70" as="geometry" />
        </mxCell>
        <mxCell id="Zko0NEZVh27HqicIJe5g-301" value="&lt;b style=&quot;forced-color-adjust: none; color: rgb(0, 0, 0); font-family: Helvetica; font-size: 30px; font-style: normal; font-variant-ligatures: normal; font-variant-caps: normal; letter-spacing: normal; orphans: 2; text-align: center; text-indent: 0px; text-transform: none; widows: 2; word-spacing: 0px; -webkit-text-stroke-width: 0px; white-space: normal; background-color: rgb(255, 255, 255); text-decoration-thickness: initial; text-decoration-style: initial; text-decoration-color: initial;&quot;&gt;product get queue&lt;/b&gt;" style="text;html=1;align=center;verticalAlign=middle;whiteSpace=wrap;rounded=0;rotation=0;fontSize=30;" vertex="1" parent="1">
          <mxGeometry x="483.13" y="310" width="283.75" height="70" as="geometry" />
        </mxCell>
        <mxCell id="Zko0NEZVh27HqicIJe5g-302" value="&lt;font style=&quot;font-size: 25px;&quot;&gt;product.create&lt;/font&gt;" style="text;html=1;align=center;verticalAlign=middle;whiteSpace=wrap;rounded=0;" vertex="1" parent="1">
          <mxGeometry x="-21.25" width="182.5" height="30" as="geometry" />
        </mxCell>
        <mxCell id="Zko0NEZVh27HqicIJe5g-303" value="&lt;font style=&quot;font-size: 25px;&quot;&gt;product.update&lt;/font&gt;" style="text;html=1;align=center;verticalAlign=middle;whiteSpace=wrap;rounded=0;" vertex="1" parent="1">
          <mxGeometry x="30" y="160" width="160.5" height="30" as="geometry" />
        </mxCell>
        <mxCell id="Zko0NEZVh27HqicIJe5g-304" value="&lt;font style=&quot;font-size: 25px;&quot;&gt;product.delete&lt;/font&gt;&lt;span style=&quot;color: rgba(0, 0, 0, 0); font-family: monospace; font-size: 0px; text-align: start; text-wrap: nowrap;&quot;&gt;%3CmxGraphModel%3E%3Croot%3E%3CmxCell%20id%3D%220%22%2F%3E%3CmxCell%20id%3D%221%22%20parent%3D%220%22%2F%3E%3CmxCell%20id%3D%222%22%20value%3D%22%26lt%3Bfont%20style%3D%26quot%3Bfont-size%3A%2025px%3B%26quot%3B%26gt%3Bauth.login%26lt%3B%2Ffont%26gt%3B%22%20style%3D%22text%3Bhtml%3D1%3Balign%3Dcenter%3BverticalAlign%3Dmiddle%3BwhiteSpace%3Dwrap%3Brounded%3D0%3B%22%20vertex%3D%221%22%20parent%3D%221%22%3E%3CmxGeometry%20x%3D%2211%22%20y%3D%22-180%22%20width%3D%22480%22%20height%3D%2230%22%20as%3D%22geometry%22%2F%3E%3C%2FmxCell%3E%3C%2Froot%3E%3C%2FmxGraphModel%3E&lt;/span&gt;" style="text;html=1;align=center;verticalAlign=middle;whiteSpace=wrap;rounded=0;" vertex="1" parent="1">
          <mxGeometry y="270" width="180" height="30" as="geometry" />
        </mxCell>
        <mxCell id="Zko0NEZVh27HqicIJe5g-305" value="&lt;font style=&quot;font-size: 25px;&quot;&gt;product.get&lt;/font&gt;" style="text;html=1;align=center;verticalAlign=middle;whiteSpace=wrap;rounded=0;" vertex="1" parent="1">
          <mxGeometry y="420" width="150" height="30" as="geometry" />
        </mxCell>
        <mxCell id="Zko0NEZVh27HqicIJe5g-336" style="edgeStyle=orthogonalEdgeStyle;rounded=0;orthogonalLoop=1;jettySize=auto;html=1;exitX=1;exitY=0.5;exitDx=0;exitDy=0;" edge="1" parent="1" source="Zko0NEZVh27HqicIJe5g-307" target="Zko0NEZVh27HqicIJe5g-331">
          <mxGeometry relative="1" as="geometry" />
        </mxCell>
        <mxCell id="Zko0NEZVh27HqicIJe5g-307" value="&lt;font style=&quot;font-size: 27px;&quot;&gt;&lt;b&gt;Auth Service&lt;/b&gt;&lt;/font&gt;" style="rounded=0;whiteSpace=wrap;html=1;" vertex="1" parent="1">
          <mxGeometry x="1140" y="-250" width="440" height="210" as="geometry" />
        </mxCell>
        <mxCell id="Zko0NEZVh27HqicIJe5g-341" style="edgeStyle=orthogonalEdgeStyle;rounded=0;orthogonalLoop=1;jettySize=auto;html=1;exitX=0.5;exitY=1;exitDx=0;exitDy=0;entryX=0;entryY=0.5;entryDx=0;entryDy=0;" edge="1" parent="1" source="Zko0NEZVh27HqicIJe5g-315" target="Zko0NEZVh27HqicIJe5g-322">
          <mxGeometry relative="1" as="geometry">
            <Array as="points">
              <mxPoint x="1360" y="840" />
              <mxPoint x="-159" y="840" />
              <mxPoint x="-159" y="675" />
            </Array>
          </mxGeometry>
        </mxCell>
        <mxCell id="Zko0NEZVh27HqicIJe5g-354" style="edgeStyle=orthogonalEdgeStyle;rounded=0;orthogonalLoop=1;jettySize=auto;html=1;exitX=0.75;exitY=1;exitDx=0;exitDy=0;" edge="1" parent="1" source="Zko0NEZVh27HqicIJe5g-315">
          <mxGeometry relative="1" as="geometry">
            <mxPoint x="-150" y="205" as="targetPoint" />
            <Array as="points">
              <mxPoint x="1470" y="940" />
              <mxPoint x="-230" y="940" />
              <mxPoint x="-230" y="251" />
              <mxPoint x="-140" y="251" />
              <mxPoint x="-140" y="205" />
            </Array>
          </mxGeometry>
        </mxCell>
        <mxCell id="Zko0NEZVh27HqicIJe5g-315" value="&lt;b&gt;&lt;font style=&quot;font-size: 27px;&quot;&gt;Product service&lt;/font&gt;&lt;/b&gt;" style="rounded=0;whiteSpace=wrap;html=1;" vertex="1" parent="1">
          <mxGeometry x="1140" y="120" width="440" height="210" as="geometry" />
        </mxCell>
        <mxCell id="Zko0NEZVh27HqicIJe5g-319" style="edgeStyle=orthogonalEdgeStyle;rounded=0;orthogonalLoop=1;jettySize=auto;html=1;exitX=1;exitY=0.5;exitDx=0;exitDy=0;entryX=-0.001;entryY=0.871;entryDx=0;entryDy=0;entryPerimeter=0;" edge="1" parent="1" source="Zko0NEZVh27HqicIJe5g-293" target="Zko0NEZVh27HqicIJe5g-315">
          <mxGeometry relative="1" as="geometry" />
        </mxCell>
        <mxCell id="Zko0NEZVh27HqicIJe5g-343" style="edgeStyle=orthogonalEdgeStyle;rounded=0;orthogonalLoop=1;jettySize=auto;html=1;exitX=1;exitY=0.5;exitDx=0;exitDy=0;" edge="1" parent="1" source="Zko0NEZVh27HqicIJe5g-322" target="Zko0NEZVh27HqicIJe5g-326">
          <mxGeometry relative="1" as="geometry" />
        </mxCell>
        <mxCell id="Zko0NEZVh27HqicIJe5g-322" value="" style="ellipse;whiteSpace=wrap;html=1;aspect=fixed;" vertex="1" parent="1">
          <mxGeometry x="-139.5" y="610" width="130" height="130" as="geometry" />
        </mxCell>
        <mxCell id="Zko0NEZVh27HqicIJe5g-324" value="&lt;b style=&quot;font-size: 30px;&quot;&gt;&lt;font style=&quot;font-size: 30px;&quot;&gt;Product DLX(Direct)&lt;/font&gt;&lt;/b&gt;" style="text;html=1;align=center;verticalAlign=middle;whiteSpace=wrap;rounded=0;rotation=0;fontSize=30;" vertex="1" parent="1">
          <mxGeometry x="-269" y="540" width="389" height="70" as="geometry" />
        </mxCell>
        <mxCell id="Zko0NEZVh27HqicIJe5g-325" value="&lt;b style=&quot;&quot;&gt;&lt;font style=&quot;font-size: 40px;&quot;&gt;RPC&lt;/font&gt;&lt;/b&gt;" style="text;html=1;align=center;verticalAlign=middle;whiteSpace=wrap;rounded=0;rotation=0;fontSize=30;" vertex="1" parent="1">
          <mxGeometry x="990" y="-285" width="130" height="70" as="geometry" />
        </mxCell>
        <mxCell id="Zko0NEZVh27HqicIJe5g-345" style="edgeStyle=orthogonalEdgeStyle;rounded=0;orthogonalLoop=1;jettySize=auto;html=1;exitX=1;exitY=0.5;exitDx=0;exitDy=0;entryX=0.25;entryY=1;entryDx=0;entryDy=0;" edge="1" parent="1" source="Zko0NEZVh27HqicIJe5g-326" target="Zko0NEZVh27HqicIJe5g-315">
          <mxGeometry relative="1" as="geometry" />
        </mxCell>
        <mxCell id="Zko0NEZVh27HqicIJe5g-326" value="" style="shape=process;whiteSpace=wrap;html=1;backgroundOutline=1;" vertex="1" parent="1">
          <mxGeometry x="463.75" y="645" width="330" height="60" as="geometry" />
        </mxCell>
        <mxCell id="Zko0NEZVh27HqicIJe5g-327" value="&lt;b style=&quot;font-size: 30px;&quot;&gt;&lt;font style=&quot;font-size: 30px;&quot;&gt;Product DLQ&lt;/font&gt;&lt;/b&gt;" style="text;html=1;align=center;verticalAlign=middle;whiteSpace=wrap;rounded=0;rotation=0;fontSize=30;" vertex="1" parent="1">
          <mxGeometry x="514" y="560" width="229.5" height="70" as="geometry" />
        </mxCell>
        <mxCell id="Zko0NEZVh27HqicIJe5g-331" value="" style="shape=cylinder3;whiteSpace=wrap;html=1;boundedLbl=1;backgroundOutline=1;size=15;" vertex="1" parent="1">
          <mxGeometry x="1705" y="-207.5" width="90" height="125" as="geometry" />
        </mxCell>
        <mxCell id="Zko0NEZVh27HqicIJe5g-332" value="" style="shape=cylinder3;whiteSpace=wrap;html=1;boundedLbl=1;backgroundOutline=1;size=15;" vertex="1" parent="1">
          <mxGeometry x="1700" y="150" width="100" height="150" as="geometry" />
        </mxCell>
        <mxCell id="Zko0NEZVh27HqicIJe5g-338" style="edgeStyle=orthogonalEdgeStyle;rounded=0;orthogonalLoop=1;jettySize=auto;html=1;exitX=1;exitY=0.5;exitDx=0;exitDy=0;entryX=0;entryY=0.5;entryDx=0;entryDy=0;entryPerimeter=0;" edge="1" parent="1" source="Zko0NEZVh27HqicIJe5g-315" target="Zko0NEZVh27HqicIJe5g-332">
          <mxGeometry relative="1" as="geometry" />
        </mxCell>
        <mxCell id="Zko0NEZVh27HqicIJe5g-350" value="" style="endArrow=classic;html=1;rounded=0;entryX=0;entryY=0.5;entryDx=0;entryDy=0;strokeWidth=6;" edge="1" parent="1" target="Zko0NEZVh27HqicIJe5g-270">
          <mxGeometry width="50" height="50" relative="1" as="geometry">
            <mxPoint x="-210" y="-185" as="sourcePoint" />
            <mxPoint x="-130" y="-190" as="targetPoint" />
          </mxGeometry>
        </mxCell>
        <mxCell id="Zko0NEZVh27HqicIJe5g-351" value="" style="endArrow=classic;html=1;rounded=0;entryX=0;entryY=0.5;entryDx=0;entryDy=0;strokeWidth=6;" edge="1" parent="1">
          <mxGeometry width="50" height="50" relative="1" as="geometry">
            <mxPoint x="-240" y="203.75" as="sourcePoint" />
            <mxPoint x="-132" y="203.75" as="targetPoint" />
          </mxGeometry>
        </mxCell>
        <mxCell id="Zko0NEZVh27HqicIJe5g-352" value="&lt;font style=&quot;font-size: 25px;&quot;&gt;auth req&lt;/font&gt;" style="text;html=1;align=center;verticalAlign=middle;whiteSpace=wrap;rounded=0;" vertex="1" parent="1">
          <mxGeometry x="-240" y="-240" width="130" height="30" as="geometry" />
        </mxCell>
        <mxCell id="Zko0NEZVh27HqicIJe5g-353" value="&lt;font style=&quot;font-size: 25px;&quot;&gt;product req&lt;/font&gt;" style="text;html=1;align=center;verticalAlign=middle;whiteSpace=wrap;rounded=0;" vertex="1" parent="1">
          <mxGeometry x="-270" y="145" width="150" height="30" as="geometry" />
        </mxCell>
        <mxCell id="Zko0NEZVh27HqicIJe5g-355" value="retry 3 times if error occur message from DLQ&lt;span style=&quot;color: rgba(0, 0, 0, 0); font-family: monospace; font-size: 0px; text-align: start; text-wrap: nowrap;&quot;&gt;%3CmxGraphModel%3E%3Croot%3E%3CmxCell%20id%3D%220%22%2F%3E%3CmxCell%20id%3D%221%22%20parent%3D%220%22%2F%3E%3CmxCell%20id%3D%222%22%20value%3D%22%26lt%3Bfont%20style%3D%26quot%3Bfont-size%3A%2025px%3B%26quot%3B%26gt%3Bauth%20req%26lt%3B%2Ffont%26gt%3B%22%20style%3D%22text%3Bhtml%3D1%3Balign%3Dcenter%3BverticalAlign%3Dmiddle%3BwhiteSpace%3Dwrap%3Brounded%3D0%3B%22%20vertex%3D%221%22%20parent%3D%221%22%3E%3CmxGeometry%20x%3D%22-430%22%20y%3D%22-237.5%22%20width%3D%22480%22%20height%3D%2230%22%20as%3D%22geometry%22%2F%3E%3C%2FmxCell%3E%3C%2Froot%3E%3C%2FmxGraphModel%3E&lt;/span&gt;" style="text;html=1;align=center;verticalAlign=middle;whiteSpace=wrap;rounded=0;rotation=0;fontSize=30;" vertex="1" parent="1">
          <mxGeometry x="290" y="880" width="670" height="30" as="geometry" />
        </mxCell>
        <mxCell id="Zko0NEZVh27HqicIJe5g-356" value="send message to DLX if error occur&amp;nbsp;" style="text;html=1;align=center;verticalAlign=middle;whiteSpace=wrap;rounded=0;rotation=0;fontSize=30;" vertex="1" parent="1">
          <mxGeometry x="400" y="790" width="500" height="30" as="geometry" />
        </mxCell>
        <mxCell id="Zko0NEZVh27HqicIJe5g-357" value="&lt;font style=&quot;font-size: 30px;&quot;&gt;auth DB&lt;/font&gt;" style="text;html=1;align=center;verticalAlign=middle;whiteSpace=wrap;rounded=0;" vertex="1" parent="1">
          <mxGeometry x="1705" y="-40" width="150" height="30" as="geometry" />
        </mxCell>
        <mxCell id="Zko0NEZVh27HqicIJe5g-358" value="&lt;font style=&quot;font-size: 30px;&quot;&gt;product DB&lt;/font&gt;" style="text;html=1;align=center;verticalAlign=middle;whiteSpace=wrap;rounded=0;" vertex="1" parent="1">
          <mxGeometry x="1690" y="330" width="180" height="30" as="geometry" />
        </mxCell>
        <mxCell id="Zko0NEZVh27HqicIJe5g-359" value="if retry count &amp;gt; 3 store in dead message table" style="text;html=1;align=center;verticalAlign=middle;whiteSpace=wrap;rounded=0;rotation=0;fontSize=30;" vertex="1" parent="1">
          <mxGeometry x="920" y="560" width="320" height="70" as="geometry" />
        </mxCell>
        <mxCell id="Zko0NEZVh27HqicIJe5g-365" value="&lt;font style=&quot;font-size: 25px;&quot;&gt;product.dead-letter&lt;/font&gt;" style="text;html=1;align=center;verticalAlign=middle;whiteSpace=wrap;rounded=0;" vertex="1" parent="1">
          <mxGeometry x="80" y="620" width="310" height="30" as="geometry" />
        </mxCell>
        <mxCell id="Zko0NEZVh27HqicIJe5g-367" value="&lt;h1 style=&quot;margin-top: 0px; font-size: 30px;&quot;&gt;&lt;font style=&quot;font-size: 30px;&quot;&gt;Dead lettering Conditions&lt;/font&gt;&lt;/h1&gt;&lt;p style=&quot;font-size: 30px;&quot;&gt;1) retry until error occur 3 times them store in DB&lt;/p&gt;&lt;p style=&quot;font-size: 30px;&quot;&gt;2)if length limit reached then directly store to DB&lt;/p&gt;&lt;p style=&quot;font-size: 30px;&quot;&gt;3) if ttl rexpires then increase ttl and requeue until specific limit&lt;/p&gt;" style="text;html=1;whiteSpace=wrap;overflow=hidden;rounded=0;" vertex="1" parent="1">
          <mxGeometry x="1520" y="530" width="540" height="390" as="geometry" />
        </mxCell>
      </root>
    </mxGraphModel>
  </diagram>
</mxfile>
